<svg width="118" height="28" viewBox="0 0 118 28" fill="none" xmlns="http://www.w3.org/2000/svg">
<g clip-path="url(#clip0_0_686)">
<path d="M22.5081 26.5002C21.574 26.5002 20.6843 26.1553 20.0394 25.5088C19.3721 24.8622 19.0163 24.0217 19.0163 23.1165C19.0163 22.2114 19.3721 21.3708 20.0394 20.7243C20.7066 20.0777 21.574 19.7329 22.5081 19.7329C23.4423 19.7329 24.3097 20.0777 24.9769 20.7243C26.3336 22.0389 26.3336 24.1941 24.9769 25.5088C24.3097 26.1553 23.4423 26.5002 22.5081 26.5002Z" fill="url(#paint0_linear_0_686)"/>
<path d="M13.0334 26.5C12.0992 26.5 11.2096 26.1552 10.5646 25.5086C9.89735 24.8621 9.54149 24.0216 9.54149 23.1164C9.54149 22.2112 9.89735 21.3707 10.5646 20.7241C10.698 20.5948 10.8537 20.4655 11.0539 20.3362C11.0984 20.2931 11.1651 20.2716 11.2096 20.2285C11.343 20.1638 11.4542 20.0991 11.5877 20.0345C11.6544 20.0129 11.7211 19.9698 11.7879 19.9483C11.9213 19.9052 12.0548 19.8621 12.2104 19.819L12.3439 19.7759L13.1446 19.7112C13.2335 19.7112 13.3447 19.7328 13.4337 19.7328H13.5004C13.5449 19.7328 13.5672 19.7328 13.6116 19.7328C13.6339 19.7328 13.6339 19.7328 13.6561 19.7328H13.6784H13.7006C13.7673 19.7328 13.8118 19.7328 13.8785 19.7328C15.213 19.7328 16.5475 19.1724 17.5039 18.2241C18.4602 17.2543 18.994 15.9612 18.9718 14.6681V14.5173L18.9495 14.4957V14.4741C18.9495 14.431 18.9495 14.4095 18.9495 14.3664L18.9273 14.2586C18.9273 14.194 18.9051 14.1293 18.9051 14.0862L18.9495 13.3535C18.9495 13.3319 18.9718 13.2457 18.994 13.2241C19.0385 13.0517 19.083 12.9224 19.1275 12.8147C19.1497 12.75 19.1719 12.6854 19.2164 12.6207C19.2832 12.5129 19.3276 12.3836 19.4166 12.2543L19.4388 12.2328C19.4611 12.1897 19.4833 12.1466 19.5278 12.1035C19.6613 11.9095 19.7947 11.7586 19.9281 11.6293C20.5954 10.9828 21.4628 10.6379 22.3969 10.6379C23.3311 10.6379 24.1985 10.9828 24.8657 11.6293C26.2224 12.944 26.2224 15.0991 24.8657 16.4138C24.7323 16.5431 24.5766 16.6724 24.3764 16.8017C24.3319 16.8233 24.3097 16.8448 24.2652 16.8664L24.1985 16.9095C24.0873 16.9741 23.9538 17.0388 23.8204 17.1035C23.7536 17.125 23.6869 17.1681 23.6202 17.1897C23.4867 17.2328 23.3533 17.2759 23.1976 17.319C23.1531 17.319 23.1309 17.3405 23.1086 17.3405C23.0864 17.3405 23.0642 17.3405 23.0642 17.3621L22.2857 17.4052C22.1745 17.4052 22.0411 17.3836 21.9299 17.3621C21.8854 17.3621 21.8631 17.3621 21.8187 17.3621C21.7964 17.3621 21.7964 17.3621 21.7742 17.3621H21.7074C21.6407 17.3621 21.5962 17.3621 21.5295 17.3621C20.195 17.3621 18.8606 17.9224 17.9042 18.8707C16.9478 19.8405 16.414 21.1336 16.4585 22.4267V22.4698V22.5129C16.4585 22.556 16.4585 22.5991 16.4808 22.6207C16.4808 22.6638 16.4808 22.7069 16.4808 22.7285C16.4808 22.75 16.4808 22.7931 16.503 22.8362C16.503 22.9009 16.5252 22.944 16.5252 23.0086L16.4585 23.7629C16.4585 23.7845 16.414 23.8707 16.414 23.8707C16.3696 24.0216 16.3251 24.1724 16.2806 24.3017C16.2583 24.3664 16.2361 24.431 16.1916 24.4741V24.4957C16.1249 24.625 16.0582 24.7328 15.9915 24.8621C15.947 24.9267 15.9247 24.9698 15.8802 25.0345C15.7468 25.2285 15.6133 25.3793 15.4799 25.5086C14.8349 26.1552 13.9675 26.5 13.0334 26.5Z" fill="url(#paint1_linear_0_686)"/>
<path d="M3.49187 8.43961C2.55774 8.43961 1.66809 8.09478 1.0231 7.44823C0.35586 6.80167 0 5.96116 0 5.05598C0 4.15081 0.35586 3.31029 1.0231 2.66374C1.69033 2.01719 2.55774 1.67236 3.49187 1.67236C4.42601 1.67236 5.29341 2.01719 5.96065 2.66374C6.62789 3.31029 6.98375 4.15081 6.98375 5.05598C6.98375 5.96116 6.62789 6.82323 5.96065 7.44823C5.31565 8.07323 4.42601 8.43961 3.49187 8.43961Z" fill="#835FF9"/>
<path d="M22.3525 8.33194C21.4184 8.33194 20.5287 7.98711 19.8837 7.34056C18.527 6.0259 18.527 3.87073 19.8837 2.55608C20.551 1.90952 21.4184 1.5647 22.3525 1.5647C23.2867 1.5647 24.1541 1.90952 24.8213 2.55608C26.178 3.87073 26.178 6.0259 24.8213 7.34056C24.1541 7.98711 23.2867 8.33194 22.3525 8.33194Z" fill="#835FF9"/>
<path d="M3.58074 26.5001C2.64661 26.5001 1.75696 26.1553 1.11196 25.5087C0.444727 24.8621 0.0888672 24.0216 0.0888672 23.1165C0.0888672 22.2113 0.444727 21.3708 1.11196 20.7242C1.24541 20.5949 1.4011 20.4656 1.60127 20.3363C1.66799 20.2932 1.73472 20.2501 1.7792 20.2285C1.91265 20.1639 2.0461 20.0992 2.1573 20.0346C2.22403 20.013 2.29075 19.9699 2.35747 19.9484C2.49092 19.9052 2.62437 19.8621 2.78006 19.819C2.8023 19.819 2.84678 19.7975 2.86902 19.7975C2.89126 19.7975 2.9135 19.7975 2.9135 19.7759L3.69195 19.7328C3.78091 19.7328 3.89212 19.7544 4.00332 19.7544H4.04781C4.07005 19.7544 4.11453 19.7544 4.13677 19.7544H4.15901H4.2035H4.22574C4.29246 19.7544 4.33694 19.7544 4.40367 19.7544C5.73814 19.7544 7.07261 19.194 8.02899 18.2458C8.98536 17.2759 9.51915 15.9828 9.49691 14.6897V14.6466V14.6035C9.49691 14.5604 9.49691 14.5389 9.47467 14.4958C9.47467 14.4527 9.47467 14.4096 9.45243 14.3665V14.2802C9.45243 14.2156 9.43019 14.1509 9.43019 14.0863L9.49691 13.332C9.49691 13.3104 9.49691 13.2889 9.51915 13.2673L9.54139 13.2242C9.58588 13.0734 9.60812 12.944 9.67484 12.7932C9.69708 12.707 9.74156 12.6639 9.76381 12.5992C9.83053 12.4699 9.89725 12.3406 9.96398 12.2328C9.98622 12.1897 10.0307 12.1251 10.0752 12.082C10.2086 11.888 10.3421 11.7371 10.4755 11.6078C11.1428 10.9613 12.0102 10.6165 12.9443 10.6165C13.8784 10.6165 14.7681 10.9613 15.4131 11.6078C16.7698 12.9225 16.7698 15.0777 15.4131 16.3923C15.2796 16.5216 15.1239 16.6509 14.9238 16.7802C14.857 16.8234 14.8126 16.8449 14.7458 16.888C14.6124 16.9527 14.5012 17.0173 14.3677 17.082C14.301 17.1035 14.2343 17.1466 14.1676 17.1682C14.0341 17.2113 13.9007 17.2544 13.745 17.2975L13.656 17.319C13.6338 17.319 13.6115 17.3406 13.5893 17.3406L12.8109 17.4052C12.7219 17.4052 12.6329 17.3837 12.5217 17.3837H12.455C12.4328 17.3837 12.3883 17.3837 12.366 17.3837H12.3438H12.2993H12.2771C12.2103 17.3837 12.1659 17.3837 12.0991 17.3837C10.7647 17.3837 9.43019 17.944 8.47381 18.8923C7.51744 19.8621 6.98365 21.1552 7.00589 22.4484V22.4915V22.5346C7.00589 22.5777 7.00589 22.5992 7.02813 22.6423C7.02813 22.6854 7.02813 22.7285 7.05037 22.7716C7.05037 22.7932 7.05037 22.8363 7.07262 22.8794C7.07262 22.9225 7.09486 22.9871 7.09486 23.0303V23.0518L7.02813 23.7846C7.02813 23.8061 7.00589 23.8923 6.98365 23.9139C6.93917 24.0647 6.89469 24.2156 6.8502 24.3234C6.82796 24.388 6.80572 24.4527 6.76124 24.5173C6.69451 24.6466 6.62779 24.7759 6.56107 24.9053C6.53883 24.9484 6.49434 25.013 6.44986 25.0777C6.31641 25.2501 6.18297 25.4225 6.04952 25.5518C5.40452 26.1553 4.51487 26.5001 3.58074 26.5001Z" fill="#835FF9"/>
<path d="M3.58074 17.3621C2.64661 17.3621 1.7792 16.9957 1.11196 16.3707C0.444727 15.7241 0.0888672 14.8836 0.0888672 13.9785C0.0888672 13.0733 0.444727 12.2328 1.11196 11.5862C1.24541 11.4569 1.4011 11.3276 1.60127 11.1983C1.64575 11.1552 1.71248 11.1336 1.7792 11.0905C1.89041 11.0259 2.02385 10.9612 2.1573 10.8966C2.22403 10.875 2.29075 10.8319 2.35747 10.8103C2.49092 10.7672 2.62437 10.7241 2.78006 10.7026L2.86902 10.681C2.89126 10.681 2.89126 10.681 2.9135 10.6595L3.71419 10.5948C3.8254 10.5948 3.9366 10.6164 4.04781 10.6379H4.07005C4.11453 10.6379 4.13677 10.6379 4.18125 10.6379C4.2035 10.6379 4.2035 10.6379 4.22574 10.6379H4.27022H4.29246C4.35918 10.6379 4.40367 10.6379 4.47039 10.6379C5.80486 10.6379 7.13934 10.0776 8.09571 9.12931C9.05209 8.15948 9.58588 6.86638 9.54139 5.57328V5.53017V5.48707C9.54139 5.44397 9.54139 5.40086 9.51915 5.35776C9.51915 5.31466 9.51915 5.2931 9.51915 5.25L9.49691 5.16379C9.49691 5.09914 9.47467 5.03448 9.47467 4.96983L9.51915 4.25862V4.23707V4.21552C9.51915 4.19397 9.54139 4.10776 9.54139 4.10776C9.58588 3.93535 9.63036 3.78448 9.67484 3.67672C9.69708 3.61207 9.74156 3.54741 9.76381 3.48276C9.83053 3.35345 9.89725 3.24569 9.96398 3.11638L9.98622 3.09483C10.0085 3.07328 10.0529 3.00862 10.0752 2.96552C10.2086 2.77155 10.3421 2.62069 10.4755 2.49138C11.1428 1.84483 12.0102 1.5 12.9443 1.5C13.8784 1.5 14.7681 1.84483 15.4131 2.49138C16.7698 3.80604 16.7698 5.96121 15.4131 7.27586C15.2796 7.40517 15.1239 7.53448 14.9238 7.66379C14.8793 7.7069 14.8348 7.72845 14.7681 7.75L14.7458 7.77155C14.6124 7.83621 14.5012 7.90086 14.3677 7.96552C14.301 7.98707 14.2343 8.03017 14.1676 8.05173C14.0341 8.09483 13.9007 8.13793 13.745 8.18104C13.7227 8.18104 13.6783 8.20259 13.656 8.20259C13.6338 8.20259 13.6115 8.20259 13.6115 8.22414L12.8331 8.26724C12.7441 8.26724 12.6329 8.24569 12.5217 8.24569H12.4772C12.4328 8.24569 12.4105 8.24569 12.366 8.24569C12.3438 8.24569 12.3438 8.24569 12.3215 8.24569H12.2993H12.2548C12.1881 8.24569 12.1436 8.24569 12.0769 8.24569C10.7424 8.24569 9.40794 8.80604 8.45157 9.75431C7.4952 10.7241 6.96141 12.0172 6.98365 13.3103V13.3535V13.3966C6.98365 13.4397 6.98365 13.4828 7.00589 13.5043C7.00589 13.5474 7.00589 13.5905 7.00589 13.6336C7.00589 13.6552 7.00589 13.6983 7.02813 13.7414C7.02813 13.806 7.05037 13.8491 7.05037 13.9138L6.98365 14.6466C6.98365 14.6681 6.98365 14.6897 6.96141 14.7112L6.93917 14.7759C6.89469 14.9483 6.8502 15.0776 6.80572 15.2069C6.78348 15.2716 6.739 15.3362 6.71676 15.4009C6.65003 15.5302 6.58331 15.6379 6.51658 15.7672C6.4721 15.8319 6.44986 15.875 6.40538 15.9397C6.27193 16.1336 6.13848 16.2845 6.00504 16.4138C5.40452 16.9957 4.51487 17.3621 3.58074 17.3621Z" fill="#835FF9"/>
</g>
<path d="M37.82 25.5V4.5H46.94C48.2 4.5 49.35 4.8 50.39 5.4C51.43 5.98 52.25 6.78 52.85 7.8C53.47 8.8 53.78 9.93 53.78 11.19C53.78 12.39 53.47 13.5 52.85 14.52C52.25 15.52 51.43 16.32 50.39 16.92C49.37 17.5 48.22 17.79 46.94 17.79H41.63V25.5H37.82ZM50 25.5L44.66 16.02L48.68 15.27L54.62 25.53L50 25.5ZM41.63 14.4H46.97C47.55 14.4 48.05 14.27 48.47 14.01C48.91 13.73 49.25 13.35 49.49 12.87C49.73 12.39 49.85 11.86 49.85 11.28C49.85 10.62 49.7 10.05 49.4 9.57C49.1 9.09 48.68 8.71 48.14 8.43C47.6 8.15 46.98 8.01 46.28 8.01H41.63V14.4ZM64.302 25.8C62.642 25.8 61.172 25.45 59.892 24.75C58.632 24.05 57.642 23.1 56.922 21.9C56.222 20.68 55.872 19.29 55.872 17.73C55.872 16.49 56.072 15.36 56.472 14.34C56.872 13.32 57.422 12.44 58.122 11.7C58.842 10.94 59.692 10.36 60.672 9.96C61.672 9.54 62.762 9.33 63.942 9.33C64.982 9.33 65.952 9.53 66.852 9.93C67.752 10.33 68.532 10.88 69.192 11.58C69.852 12.26 70.352 13.08 70.692 14.04C71.052 14.98 71.222 16.01 71.202 17.13L71.172 18.42H58.362L57.672 15.9H68.082L67.602 16.41V15.75C67.542 15.13 67.342 14.59 67.002 14.13C66.662 13.65 66.222 13.28 65.682 13.02C65.162 12.74 64.582 12.6 63.942 12.6C62.962 12.6 62.132 12.79 61.452 13.17C60.792 13.55 60.292 14.1 59.952 14.82C59.612 15.52 59.442 16.4 59.442 17.46C59.442 18.48 59.652 19.37 60.072 20.13C60.512 20.89 61.122 21.48 61.902 21.9C62.702 22.3 63.632 22.5 64.692 22.5C65.432 22.5 66.112 22.38 66.732 22.14C67.352 21.9 68.022 21.47 68.742 20.85L70.572 23.4C70.032 23.9 69.412 24.33 68.712 24.69C68.032 25.03 67.312 25.3 66.552 25.5C65.792 25.7 65.042 25.8 64.302 25.8ZM84.0123 25.5L79.5123 19.41L78.6723 18.27L72.1623 9.69H76.7223L81.1023 15.63L82.0323 16.89L88.4823 25.5H84.0123ZM72.1323 25.5L78.4023 17.1L80.5023 19.62L76.4823 25.5H72.1323ZM82.0323 18.12L80.0223 15.63L83.6523 9.69H88.0023L82.0323 18.12Z" fill="white"/>
<path d="M88.846 25.5L97.036 4.5H100.696L108.826 25.5H104.776L100.276 13.56C100.176 13.32 100.036 12.94 99.856 12.42C99.696 11.9 99.516 11.34 99.316 10.74C99.116 10.12 98.936 9.55 98.776 9.03C98.616 8.49 98.496 8.1 98.416 7.86L99.166 7.83C99.046 8.23 98.906 8.68 98.746 9.18C98.586 9.68 98.416 10.2 98.236 10.74C98.056 11.28 97.876 11.8 97.696 12.3C97.536 12.8 97.386 13.25 97.246 13.65L92.746 25.5H88.846ZM92.566 20.7L93.916 17.31H103.486L104.926 20.7H92.566ZM111.293 25.5V9.69H114.983V25.5H111.293ZM113.093 6.33C112.353 6.33 111.773 6.15 111.353 5.79C110.953 5.41 110.753 4.88 110.753 4.2C110.753 3.56 110.963 3.04 111.383 2.64C111.803 2.24 112.373 2.04 113.093 2.04C113.853 2.04 114.433 2.23 114.833 2.61C115.253 2.97 115.463 3.5 115.463 4.2C115.463 4.82 115.253 5.33 114.833 5.73C114.413 6.13 113.833 6.33 113.093 6.33Z" fill="#7E848B"/>
<defs>
<linearGradient id="paint0_linear_0_686" x1="19.0412" y1="23.1164" x2="26.3932" y2="23.1164" gradientUnits="userSpaceOnUse">
<stop stop-color="#331C9C"/>
<stop offset="1" stop-color="#9066FB"/>
</linearGradient>
<linearGradient id="paint1_linear_0_686" x1="9.59986" y1="18.5686" x2="26.8171" y2="18.5686" gradientUnits="userSpaceOnUse">
<stop stop-color="#331C9C"/>
<stop offset="1" stop-color="#9066FB"/>
</linearGradient>
<clipPath id="clip0_0_686">
<rect width="26" height="25" fill="white" transform="translate(0 1.5)"/>
</clipPath>
</defs>
</svg>
